<?xml version="1.0" standalone="no"?>
<!DOCTYPE svg PUBLIC "-//W3C//DTD SVG 20010904//EN"
 "http://www.w3.org/TR/2001/REC-SVG-20010904/DTD/svg10.dtd">
<svg version="1.0" xmlns="http://www.w3.org/2000/svg"
 width="250.000000pt" height="250.000000pt" viewBox="0 0 500.000000 500.000000"
 preserveAspectRatio="xMidYMid meet">
<metadata>
Created by potrace 1.16, written by Peter Selinger 2001-2019
</metadata>
<g transform="translate(0.000000,500.000000) scale(0.100000,-0.100000)"
fill="#000000" stroke="none">
<path d="M2205 3160 c-217 -31 -400 -149 -526 -340 -33 -49 -119 -220 -119
-236 0 -15 -93 -146 -144 -203 -64 -70 -67 -92 -21 -141 48 -50 205 -111 415
-162 74 -18 410 -17 510 1 164 29 400 124 533 213 220 147 387 335 387 436 0
31 -30 65 -68 77 -47 14 -169 79 -262 139 -120 78 -137 87 -240 138 -147 71
-174 79 -300 83 -58 2 -132 0 -165 -5z m261 -88 c11 -7 30 -67 56 -172 l13
-54 130 -77 c72 -42 165 -97 208 -121 73 -42 76 -45 59 -61 -16 -15 -27 -10
-172 79 -231 142 -225 139 -247 123 -60 -42 -183 -168 -183 -187 0 -21 55
-267 66 -296 7 -19 -44 -42 -58 -28 -5 5 -14 36 -19 68 -5 33 -14 86 -19 119
-6 33 -14 80 -18 105 l-7 45 -197 3 c-193 2 -198 2 -198 -18 0 -11 -4 -28 -9
-38 -6 -9 -29 -78 -51 -152 -23 -74 -46 -139 -50 -143 -4 -5 -17 -4 -28 2 -20
11 -20 11 0 68 11 32 23 67 28 78 33 71 80 217 74 226 -3 6 -17 49 -30 96 -17
62 -21 91 -13 104 5 11 14 19 18 19 5 0 23 -45 41 -100 l32 -100 172 0 172 0
50 33 c27 17 82 58 122 90 77 62 80 69 61 142 -6 22 -14 58 -18 80 -5 22 -12
48 -16 58 -8 18 10 23 31 9z m684 -360 c0 -39 -146 -203 -245 -277 -22 -16
-42 -33 -45 -36 -8 -10 -118 -79 -125 -79 -4 0 -19 -8 -33 -19 -15 -10 -73
-37 -129 -59 -95 -38 -130 -48 -283 -83 -73 -17 -378 -17 -450 0 -103 24 -135
33 -225 64 -96 32 -155 63 -155 79 0 6 6 8 13 5 6 -3 32 -12 57 -22 25 -9 52
-20 62 -25 57 -30 343 -80 460 -80 141 0 364 47 513 108 190 78 415 243 525
386 32 41 60 59 60 38z"/>
<path d="M3485 2888 c-57 -18 -111 -49 -156 -88 -39 -33 -47 -46 -51 -83 -10
-86 -77 -185 -195 -287 -35 -29 -63 -57 -63 -60 0 -15 82 -32 180 -37 88 -5
119 -2 188 16 190 49 324 153 368 284 52 157 -110 309 -271 255z"/>
<path d="M2840 2239 c-47 -33 -100 -67 -118 -75 -43 -22 -45 -26 -25 -65 11
-22 19 -68 23 -128 l5 -95 34 -20 c30 -17 53 -20 173 -20 157 -1 158 -1 158
74 0 74 -26 171 -67 256 -47 96 -72 134 -87 133 -6 0 -49 -27 -96 -60z"/>
<path d="M1290 2159 c-76 -36 -130 -74 -130 -93 0 -30 55 -38 232 -33 164 5
280 21 261 36 -4 4 -30 13 -58 20 -55 14 -98 32 -168 73 -26 15 -53 28 -60 27
-7 0 -41 -14 -77 -30z"/>
<path d="M1705 2006 c-9 -69 -1 -124 20 -145 26 -26 96 -41 193 -41 97 0 144
14 156 45 3 9 6 38 6 63 -1 69 -20 88 -100 96 -82 7 -196 22 -237 31 l-31 7
-7 -56z"/>
</g>
</svg>
