<?xml version="1.0" standalone="no"?>
<!DOCTYPE svg PUBLIC "-//W3C//DTD SVG 20010904//EN"
 "http://www.w3.org/TR/2001/REC-SVG-20010904/DTD/svg10.dtd">
<svg version="1.0" xmlns="http://www.w3.org/2000/svg"
 width="505.000000pt" height="360.000000pt" viewBox="0 0 505.000000 360.000000"
 preserveAspectRatio="xMidYMid meet">
<metadata>
Created by potrace 1.16, written by Peter Selinger 2001-2019
</metadata>
<g transform="translate(0.000000,360.000000) scale(0.100000,-0.100000)"
fill="#000000" stroke="none">
<path d="M2960 2857 c-34 -17 -37 -61 -9 -145 34 -104 83 -177 210 -307 112
-116 149 -166 149 -200 0 -37 -34 -88 -67 -102 -49 -20 -89 -10 -253 67 -308
145 -268 140 -1141 140 l-719 0 -20 -32 c-28 -46 -25 -72 11 -102 l31 -26 412
0 413 0 -39 -42 c-22 -24 -46 -54 -55 -68 l-14 -25 -475 3 c-502 4 -518 3
-549 -42 -23 -32 -18 -65 14 -97 l29 -29 461 0 461 0 0 -65 0 -65 -342 0
c-367 0 -379 -2 -407 -51 -19 -34 -8 -74 26 -96 25 -16 60 -18 390 -18 200 0
363 -3 363 -6 0 -3 16 -31 35 -63 19 -32 35 -60 35 -62 0 -1 -88 -4 -196 -6
l-196 -3 -24 -28 c-31 -36 -31 -71 1 -102 l24 -25 300 0 c286 0 304 -1 388
-24 48 -13 122 -32 163 -41 156 -35 210 -75 275 -204 38 -76 65 -101 108 -101
15 0 89 16 165 35 257 64 324 67 563 26 131 -23 169 -18 213 25 51 52 22 119
-71 165 -45 22 -59 24 -193 22 -159 -2 -297 -14 -462 -40 -59 -9 -111 -14
-114 -10 -4 4 -1 68 6 144 22 236 3 352 -76 471 -44 67 -114 135 -168 163
l-41 21 40 -7 c65 -10 146 -55 203 -112 96 -95 152 -258 152 -437 0 -53 2 -96
5 -96 16 0 181 90 242 132 86 59 132 107 201 210 86 127 115 141 339 157 138
10 185 27 220 80 13 19 23 49 23 67 0 40 -51 192 -79 237 -43 70 -132 137
-320 241 -164 91 -202 124 -292 257 -44 65 -95 130 -112 145 -70 59 -190 95
-237 71z"/>
<path d="M2721 2621 c-36 -33 -40 -73 -15 -126 51 -108 156 -171 404 -239 134
-37 140 -38 140 -22 0 22 -346 382 -384 400 -55 26 -109 21 -145 -13z"/>
<path d="M2465 1023 c-36 -25 -47 -28 -105 -24 -179 10 -189 9 -221 -27 -51
-57 -31 -142 39 -161 83 -24 250 -7 327 31 40 20 95 66 95 79 0 11 -81 129
-89 129 -3 0 -24 -12 -46 -27z"/>
</g>
</svg>
